# Blender v2.77 (sub 0) OBJ File: ''
# www.blender.org
mtllib object.mtl
o Cube
v 1.000000 -1.000000 -1.000000
v 1.000000 -1.000000 1.000000
v -1.000000 -1.000000 1.000000
v -1.000000 -1.000000 -1.000000
v 1.000000 1.000000 -0.999999
v 0.999999 1.000000 1.000001
v -1.000000 1.000000 1.000000
v -1.000000 1.000000 -1.000000
v -0.221704 3.000000 0.221703
v -0.221703 3.000000 -0.221703
v 0.221703 3.000000 0.221704
v 0.221703 3.000000 -0.221703
v -3.000000 -1.000000 0.999999
v -3.000000 -1.000000 -1.000001
v -3.000000 1.000000 0.999999
v -3.000000 1.000000 -1.000000
v 3.000000 -0.212877 -0.212876
v 3.000000 -0.212877 0.212878
v 3.000000 0.212877 -0.212876
v 3.000000 0.212877 0.212878
vn 0.000000 -1.000000 0.000000
vn -0.931900 0.362700 -0.000000
vn 0.366200 0.930500 0.000000
vn -0.000000 -0.000000 1.000000
vn 0.000000 0.000000 -1.000000
vn 0.000000 0.362700 -0.931900
vn -0.000000 0.362700 0.931900
vn 0.000000 1.000000 0.000000
vn 0.931900 0.362700 0.000000
vn -1.000000 -0.000000 -0.000000
vn 1.000000 -0.000000 0.000000
vn 0.366200 -0.000000 0.930500
vn 0.366200 0.000000 -0.930500
vn 0.366200 -0.930500 0.000000
usemtl Material
s off
f 1//1 2//1 3//1 4//1
f 8//2 7//2 9//2 10//2
f 5//3 6//3 20//3 19//3
f 2//4 6//4 7//4 3//4
f 8//5 4//5 14//5 16//5
f 5//6 8//6 10//6 12//6
f 7//7 6//7 11//7 9//7
f 4//5 8//5 5//5 1//5
f 12//8 10//8 9//8 11//8
f 6//9 5//9 12//9 11//9
f 13//10 15//10 16//10 14//10
f 4//1 3//1 13//1 14//1
f 3//4 7//4 15//4 13//4
f 7//8 8//8 16//8 15//8
f 17//11 19//11 20//11 18//11
f 6//12 2//12 18//12 20//12
f 1//13 5//13 19//13 17//13
f 2//14 1//14 17//14 18//14
